<?xml version="1.0" encoding="utf-8"?>
<!-- Generator: Adobe Illustrator 16.0.0, SVG Export Plug-In . SVG Version: 6.00 Build 0)  -->
<!DOCTYPE svg PUBLIC "-//W3C//DTD SVG 1.1//EN" "http://www.w3.org/Graphics/SVG/1.1/DTD/svg11.dtd">
<svg version="1.1" id="央铋_1" xmlns="http://www.w3.org/2000/svg" xmlns:xlink="http://www.w3.org/1999/xlink" x="0px" y="0px"
	 width="1200px" height="1200px" viewBox="0 0 1200 1200" enable-background="new 0 0 1200 1200" xml:space="preserve">
<rect fill="#FBFBFB" width="1200" height="1200"/>
<g>
	<path fill="#888888" d="M974.136,631.013c0.004-0.021,0.006-0.036,0.009-0.055C974.142,630.976,974.139,630.993,974.136,631.013
		c0.459-3.023-1.627-3.095-2.55-5.441c-0.598-1.521-0.268-4.467-0.362-6.108c-0.709-1.244-0.801-2.521-0.274-3.831
		c0.568-0.997,1.123-2.002,1.665-3.015c0.138-1.001-0.271-1.767-1.223-2.297c-0.233-0.922-0.148-1.813,0.256-2.677
		c-0.168-1.644,1.309-1.906-0.016-3.004c-2.396-1.984-1.039,5.578-1.005,5.311c-0.142,1.113,0.219,2.171-1.177,2.777
		c-1.357,0.589-0.849-2-1.017-2.096c-1.646,0.396-1.674,0.411-2.736-0.489c1.062,0.9-0.535-3.267-0.813-2.419
		c0.382-1.16,1.86-0.812,2.098-1.321c0.59-1.266-0.199-1.4-0.355-2.991c-0.433-4.394-1.749-9.018-1.484-13.419
		c0.113-1.884,1.347-4.053,1.336-5.795c0.512-0.506,0.678-1.099,0.499-1.778c-0.641-0.146-1.143-0.463-1.506-0.952
		c-1.324-7.628,7.568-15.979,3.199-22.485c-0.685-1.019,0.807-3.383-1.904-1.562c-2.698,1.812,0.066,1.411-0.023,2.944
		c-0.127,2.153,0.572,2.546-1.189,4.873c-1.061,1.401-3.173,1.607-1.424,3.68c-2.763,0.146-5.579-0.844-7.236-2.498
		c-2.01-2.004-1.429-4.411-2.576-6.495c-1.492-2.709-4.083-2.879-6.288-4.901c-2.245-2.059-2.284-4.575-3.604-7.057
		c-0.401-0.755-2.591-3.976-3.416-4.484c-2.251-1.386-1.921-0.327-4.336-0.766c-3.146-0.572-3.526-4.993-4.897-7.77
		c-0.799-1.621-1.108-4.163-3.607-4.038c-1.8,0.089-1.416,2.236-2.854,2.166c-0.657-0.033-2.145-3.257-2.209-3.899
		c-0.078-0.783,1.427-1.396,1.387-2.011c-0.04-0.639-1.079-0.752-1.152-1.336c-0.349-2.763-0.166-4.426,0.125-7.383
		c0.295-2.995-0.175-7.049-2.101-9.412c-0.617-0.758-3.938-3.772-4.44-3.588c-2.482,0.912,1.144,5.545,1.656,6.95
		c-5.072-1.899-7.869-6.598-10.725-10.879c-0.188,0.557,0.451,1.887-0.367,2.063c-0.809,0.175,0.242-1.825-0.952-1.543
		c-2.788,0.659,0.827,8.955,1.144,9.982c-1.445-0.529-1.755-2.227-2.849-3.154c-1.623-1.376-2.743-0.779-4.024-2.876
		c-1.444-2.363-1.894-6.53-2.002-8.727c-0.092-1.89-0.264-4.406-0.822-5.748c-0.637-0.382-1.258-0.788-1.863-1.216
		c-0.646-0.415-0.703-1.032-0.17-1.852c-0.196-0.362-2.451-3.841-2.456-3.776c0.342-0.325,0.732-0.387,1.171-0.184
		c1.777-0.64-5.689-6.776-5.885-6.949c-1.338-1.188-4.345-3.298-4.266-5.275c0.17-4.302,2.451,0.166,4.402-0.96
		c-0.022-0.911-0.968-3.381-1.253-4.114c-0.386-0.994,0.066-1.836-0.85-2.61c-0.23-0.194-1.36,0.768-1.6,0.598
		c-0.574-0.407-0.914-1.12-1.407-1.454c-1.583-1.073-3.729-3.129-3.989-5.124c-0.452,1.051,0.176,6.226-2.219,4.112
		c-2.096-1.851-1.2-4.082-4.511-4.945c-0.745-0.194-2.17,0.346-2.799-0.06c-1.109-0.716-0.72-1.977-1.467-2.645
		c-3.276-2.93-0.728,0.537-2.37,1.433c-2.95-0.644-3.929-8.438-6.078-10.729c0.203,0.668,0.338,1.35,0.405,2.044
		c-2.751,0-4.611,0.581-6.338-1.602c-1.122-1.418,0.399-2.1-1.446-2.667c-0.079,0.58-0.282,1.12-0.607,1.619
		c-0.582,0.646-1.191,0.624-1.829-0.065c-0.687-0.402-1.146-0.985-1.377-1.75c-1.172,0.082-2.28-0.143-3.325-0.675
		c-4.586-2.057-5.777-5.071-5.178-9.508c0.276-2.045,0.544-4.331,0.576-6.386c0.033-2.104-1.76-0.668-0.365-3.046
		c-0.081-0.006-2.322-0.888-2.34-0.878c-0.568,0.312-0.012,1.319-0.934,1.115c-1-0.221-1.281-0.357-2.387-0.056
		c-0.272-2.383,0.876-6.819,1.58-9.027c0.021-0.065,1.37-3.345,1.406-2.504c-0.086-2.023-5.831-8.986-2.647-10.886
		c-3.298-0.852-0.654-2.753-1.678-4.575c-0.609-1.083-0.231-0.201-0.891-0.976c-1.157,0.374-2.032,0.037-2.625-1.01
		c-0.278-0.405-0.556-0.811-0.834-1.216c-1.509-1.29-2.641-2.954-3.785-4.536c-1.493-2.064-1.053-2.509-1.208-4.843
		c0.416,0.058,0.731-0.071,0.946-0.388c-0.474-1.237-0.634-2.513-0.481-3.829c-0.412-1.92-1.289-3.635-1.69-5.553
		c-0.615-2.937-1.365-6.037-1.87-8.706c0.349-0.741,0.551-1.526,0.608-2.356c-0.593-0.69-0.939-1.475-1.042-2.353
		c0.076-0.824,1.342-3.087,1.274-3.736c-0.402-3.85-4.073-3.253-6.158-5.248c-0.676-0.647-0.949-2.252-1.605-3.047
		c-1.198-1.454-2.161-0.442-2.635-3.245c-0.356,2.06-0.836,2.531-1.955,0.628c-1.301-2.212,1.021-1.628-1.154-2.958
		c-0.599-0.366,0.622-4.121-2.058-3.756c-0.933,0.126-2.091,4.348-4.076,2.469c-0.443-0.42,0.808-2.086-0.579-3.322
		c-1.455,2.467-1.132,8.583-5.939,7.48c-3.606-0.827-3.037-5.887-3.826-8.518c-1.301-4.334-2.556-5.472-2.051-10.053
		c0.436-3.954-1.326-7.025-1.146-11.142c0.048-1.12,0.974-3.271,0.202-4.189c-0.269-0.32-2.08,0.899-2.594,0.303
		c-0.728-0.843,0.639-2.75,0.546-3.569c-0.253-2.241-1.152-1-2.056-2.722c-0.564-1.077-0.453-2.473-1.235-3.484
		c-0.521-0.673-2.561-0.3-2.764-0.68c-1.269-2.366,1.366-6.792,3.676-7.253c-0.588-2.324-5.49-1.326-6.676-2.003
		c-3.045-1.738-1.265-8.72-1.633-11.558c-0.198-1.529-0.594-4.356-1.158-5.775c-0.607-1.53-2.663-2.408-3.158-3.611
		c-0.983-0.344-1.099-0.863-0.345-1.555c0.728-0.387,0.934-0.943,0.617-1.669c-1.252-1.187-3.66-0.28-5.226-0.441
		c0.027,0.612,0.214,1.172,0.562,1.681c0.213,0.84-0.187,1.269-1.198,1.287c0.292,0.767,0.11,1.318-0.545,1.656
		c-0.582,0.087-1.166,0.134-1.755,0.14c-0.78,0.944-1.401,0.271-2.004,1.52c0.699,1.286,1.011,2.658,0.935,4.116
		c-0.099,1.354-0.355,2.677-0.771,3.969c-1.125,4.775-2.476,9.188-4.98,13.396c-1.32,2.22-2.756,4.178-3.315,6.772
		c-0.407,1.89,0.332,3.373-1.149,4.223c0.202-0.116,2.872-0.048,3.543,0.541c1.811,1.589-0.838,4.559-1.876,6.072
		c-1.078,1.571-1.403,1.078-1.461,3.187c-0.044,1.592,1.459,3.081,1.436,4.362c-0.044,2.448-2.491,5.228-3.096,7.75
		c-0.272,1.138-0.726,3.154-0.678,4.29c0.105,2.452,1.502,3.087,2.15,5.363c1.022,3.585-1.072,8.127-0.444,12.178
		c0.689,4.447,1.949,6.541,0.407,10.876c-1.305,3.671-2.727,7.433-3.264,11.321c-0.457,3.311-0.298,6.035-1.102,9.188
		c-0.908,3.567-1.438,6.984-3.323,10.211c-2.036,3.482-3.624,5.271-4.309,9.137c-0.605,3.422-1.81,5.901-4.813,7.871
		c-2.481,1.626-7.729,3.843-10.736,3.318c-2.963-0.517-6.036-3.638-8.737-5.061c-2.52-1.327-6.126-2.437-7.502-5.162
		c-0.274-0.545-2.433-6.69-2.312-7.016c-0.243,0.658-11.127-2.166-12.265-2.42c-6.155-1.377-8.146-6.658-12.547-10.311
		c-2.043-1.696-4.324-1.957-6.567-3.198c-0.841-0.465-5.255-3.232-5.513-3.808c-0.487-1.084,1.496-3.225,0.617-4.989
		c-1.514-3.035-1.937-0.397-3.068-0.715c-2.25-6.131-4.536,3.182-7.87,0.58c1.51,0.567,1.978-1.123,3.353-1.076
		c0.072-1.251-2.244-1.944-3.233-1.741c-1.083,0.222,0.566,2.074-1.32,2.188c-1.27,0.077-2.165-1.221-2.835-1.959
		c-0.775-0.853-0.761-2.292-1.811-3.285c-0.805-0.763-2.057-1.007-2.968-1.625c-1.453-0.987-2.546-2.391-3.99-3.397
		c-1.425-0.994-3.36-1.401-4.663-2.424c-4.538-3.564-0.795-7.941,1.572-11.685c1.353-2.138,3.849-4.184,4.858-6.067
		c1.244-2.321,2.896-7.87,3.186-10.446c-1.667-0.924-1.953,3.233-3.514,1.107c0.505-0.192,0.227-3.789,0.276-4.872
		c-0.059,1.269,1.511-3.603,0.396-1.871c-0.416,0.647-0.137-2.665,0.521-1.323c-0.092,0.421,0.054,0.693,0.438,0.818
		c0.359-4.292,0.938,0.384,1.471-0.073c0.675-0.578,1.146-2.196,1.017-3.387c0.187,0.736,0.403,1.464,0.649,2.182
		c0.791,0.792,3.53-2.903,3.614-3.56c-0.021,0.281-0.178,6.306,0.785,4.461c1.109-2.125,2.777-3.629,3.613-6.166
		c0.388-1.179,1.917,0.977,1.309-1.644c-0.321-1.389-3.96-1.179-1.655-3.259c0.104,0.757,0.438,1.392,1.002,1.903
		c0.817-0.5-0.335-1.709,0.049-2.309c0.514-0.801,1.272-1.673,1.885-2.553c1.019-1.463,4.526-5.203,4.31-6.805
		c-0.288-2.139-1.348-1.116-1.991-2.319c0.085,0.158-0.813-2.264-0.103-1.98c-1.817-0.724-0.286-0.026-1.339,0.281
		c-0.015,0.004-2.61,1.542-2.671,1.699c-1.277-0.534-0.459-3.898-2.433-4.785c2.063,0.072,1.737-3.059,3.756-3.08
		c-1.516-0.01-2.714,0.89-3.548,2.083c-0.031-1.64,3.117-4.23,1.105-3.944c-3.443,0.491-2.762,4.444-4.268,5.865
		c-0.042-0.416,0.075-0.784,0.351-1.105c0.172-1.348-4.616,1.623-4.966,2.524c0.88,0.265,1.768,0.3,2.666,0.105
		c-0.445,1.382-2.15,1.155-2.935,2.199c1.68,0.27,3.359,0.54,5.039,0.81c-0.487,1.183-3.982,7.237-5.873,3.304
		c-0.668-1.389,1.285-1.589,0.914-2.706c-0.527-1.587-1.018,0.064-2.197-0.543c0.959-1.231,2.557-1.618,1.602-4.027
		c-0.541,0.724-5.539,4.346-6.05,4.081c-2.643-1.367,2.895-5.159,4.14-5.656c-0.646-1.151-1.311,0.466-1.954-0.503
		c2.006-2.552,4.139-5.107,5.316-8.175c-2.49,2.054-4.07,5.228-6.554,7.059c-0.94,0.694-2.236,0.608-3.152,1.317
		c-0.933,0.722-0.998,1.949-1.99,2.643c-0.651,0.456-1.704-0.276-2.668,0.125c-1.326,0.552-1.507,2.083-3.062,2.54
		c-1.563,0.458-3.655,0.27-4.014-1.625c-0.184-0.975,2.134-0.795-0.054-2.672c1.373,1.179-5.19-1.228-3.572-1.351
		c-1.974,0.149-2.788,2.137-4.929,2.279c-3.341,0.222-4.749-2.866-7.372-3.557c-1.568-0.413-2.722,1.094-4.153-0.03
		c-0.955-0.751,2.982-1.698,0.131-3.036c-2.019-0.947-3.312,1.925-4.782,1.998c-0.379,0.019-4.464-2.077-4.815-2.473
		c0.555,0.127,2.29-1.288,2.268-1.842c-0.083-2.077-3.029,1.163-2.983,1.144c-5.443,2.265-2.988-6.89-8.519-7.075
		c-0.25,0.704,0.992,0.76,0.546,1.516c-1.979-0.792-2.208,2.848-4.216,1.389c-2.144-1.557,0.565-4.491,0.479-5.987
		c0.046,0.792-1.918-4.35-1.334-3.9c-1.262-0.971-1.045,1.322-2.861,1.057c0.05,0.331,1.01,3.046,0.724,3.354
		c-1.849,1.979-1.844-1.77-2.63-1.869c-0.449-0.056-1.182,1.335-1.752,1.28c-0.527-0.052-1.263-1.458-1.622-1.119
		c-1.41,1.334,0.896,2.055-0.061,4.032c-1.554-0.545-0.142-2.895-2.275-3.501c-2.621-0.746-0.569,0.509-1.816,1.529
		c-0.747-1.877-2.297-0.673-2.902,0.666c-1.159,2.571,0.497,1.059,0.994,1.651c0.675,0.805,5.413,6.215,6.226,5.896
		c0.664-0.261-0.332-1.683,0.421-2.392c1.63-1.536,5.081-0.605,5.909,1.265c0.285,0.644-0.605,1.887-0.377,2.658
		c0.227,0.767,1.256,1.135,1.504,1.821c0.802,2.221,0.053,4.773,0.947,6.83c-0.818,0.589-4.428-0.451-5.627-0.263
		c0.733-0.114,0.021,1.062-0.401,1.689c-0.071-0.471-3.932,1.169-3.013,1.072c-0.774,0.732-1.678,1.029-2.711,0.891
		c-0.552-0.561-1.163-1.043-1.832-1.447c-1.208-0.073-2.952,1.237-4.297,1.443c-1.592,0.245-4.779,0.423-5.854-1.081
		c-0.974-1.362,0.688-2.499-1.132-3.842c-0.415,1.005-0.83,2.01-1.245,3.015c-1.888-1.518-3.102-1.664-4.125-0.234
		c-0.067,0.094-1.965,5.243-1.89,5.663c-0.663-2.523-2.102-2.86-4.482-2.906c0.196,0.737-1.802,6.003-1.754,6.014
		c-0.35-0.08,0.156-1.195-0.467-1.095c-0.679,0.469-1.224,1.061-1.635,1.776c-0.233-0.886,0.862-1.813,0.065-2.615
		c-1.909,2.061-0.844,4.202-1.825,6.325c-1.16,2.51-2.322,0.7-3.76,2.465c-0.715,0.877,0.195,2.753-0.372,3.569
		c-1.295,1.864-0.579-0.644-2.052-0.115c-0.893,3.453,2.762,1.96,3.401,2.817c2.031,2.723-3.836,8.227-5.307,3.88
		c-2.489,2.642-1.939,6.24-3.615,9.414c-0.404,0.766,0.303,1.563-0.275,2.31c-0.266,0.343-1.612,1.035-1.932,1.403
		c-0.316,0.365-1.331-0.801-1.731-0.297c-0.367,0.461-0.901,2.815-1.116,3.337c-1.342,3.26-1.847,7.256,3.289,7.746
		c-1.873,1.929,1.7,2.927,0.898,4.732c-1.191-0.274-2.383-0.548-3.574-0.822c0.161,0.277,2.834,4.051,2.216,4.449
		c-0.683,0.441-3.703-2.64-4.949-2.78c-3.149-0.355-1.619,1.76-1.702,5.295c-1.345-1.756-0.212-3.061-2.351-4.509
		c-1.734-1.175-5.695-1.729-7.666-2.104c-4.409-0.837-7.025,2.254-9.367,6.066c0.265-0.849-0.667-0.994-0.768-1.725
		c-0.258-1.881,1.618-3.166,1.418-4.992c-0.266-2.432-3.96-4.489-5.843-6.672c-2.451-2.843-5.057-7.787-8.164-9.893
		c-0.713-0.483-1.239-0.838-1.943-1.16c-1.077-0.492-2.522,1.57-3.228-0.618c-0.091,0.57-0.3,1.093-0.627,1.568
		c0.161-2.799-3.552-5.926-6.137-3.854c-1.769,1.418,0.774,3.283-0.094,3.939c-1.113,0.841-1.242-1.012-2.213-0.031
		c0.113-0.114-1.071,3.941-1.139,4.187c-0.246-0.65-1.436-0.208-1.615-1.177c-0.354-1.92,2.054-2.141,1.945-3.306
		c-0.136-1.466,0.001-0.65-0.787-1.485c-0.102-0.107-1.846,0.012-1.831,0.539c0.03,0.975,1.134,0.148,1.471,0.799
		c-0.938,0.115-3.381,0.885-3.777,1.243c-0.655,0.591-0.898,4.228-1.042,4.323c-1.088,0.721-1.132-5.298-2.298-5.925
		c-3.203-1.722-4.237,2.083-2.923,3.928c0.459,0.645,1.854-0.678,1.968,0.604c0.183,2.043-0.633,0.739-1.417,1.914
		c-1.449,2.173-3.472,2.932-0.238,5.853c-1.494-0.174-2.479,0.798-3.192,1.979c0.226-1.728-0.262-2.179-1.089-3.499
		c-0.566-0.903-1.819-0.061-2.029-0.314c-0.365-0.44,1.464-1.541,1.438-1.613c-0.225-0.638-1.529-1.249-1.486-1.494
		c-0.014,0.076-0.229-1.331-0.223-1.302c-0.128-0.613,1.072,0.047,1.341-0.12c-0.141-0.001-0.028-2.18,0.099-2.033
		c-0.456-1.374-2.76,2.445-2.716,2.353c-0.906,1.908,0.011,3.624-0.646,5.35c-0.955-1.065-5.685,0.358-6.323,2.447
		c-0.798-2.04,3.499-4.658-1.204-3.059c-1.312,0.446-1.003,1.785-2.336,1.562c-0.829-0.139-0.733-2.745-2.105-3.105
		c0.983,0.875,0.424,1.766,0.852,2.799c0.336,0.813,1.195,0.615,1.505,1.145c0.266,0.454,1.178,2.336,1.317,2.768
		c0.484,1.5,0.201,3.668,1.074,4.959c0.387,0.572-0.022,0.529,0.443,1.024c0.764,0.812,2.414,0.376,2.798,1.413
		c-1.495,1.171-3.823-1.134-4.701-1.249c-2.304-0.3-0.473-0.383-2.15,0.679c-1.121-0.606-0.419-2.258-1.273-3.091
		c-0.34,0.708-0.681,1.417-1.021,2.125c-1.295-0.902-2.375-1.56-2.309-3.381c-1.873,2.658,0.508,2.018,0.876,3.552
		c-0.227,0.463-0.56,0.835-0.999,1.117c3.267,0,4.244-0.21,1.606,2.692c-0.646,0.71-0.509,1.772-1.185,2.011
		c-1.191,0.421-3.492-1.375-4.572-1.539c-0.439-0.067-0.378,1.184-0.624,1.345c-0.19-0.529-0.541-0.9-1.043-1.122
		c-0.028,0.237-2.332,2.018-1.982,1.572c-0.086,0.11-1.437-0.681-1.305,0.706c0.193,2.024,2.31,1.098,2.884,0.774
		c2.101-1.186,0.278,3.58,0.321,3.148c-0.126,1.289-0.773,3.728-0.595,5.373c0.234,2.167,1.166,3.062,1.135,5.388
		c-0.036,2.609-1.425,5.237-2.149,7.694c-1.718-0.463-3.203-3.068-4.957-3.82c-1.306-0.56-2.764-1.41-4.034-1.926
		c-0.789-0.321-1.868-0.105-2.584-0.442c-0.232-0.109-2.316-1.579-2.541-1.6c-2.203-0.209-0.656,1.489,0.799,1.742
		c-1.198,0.382,0.593,1.621-1.43,0.572c-0.201-0.104-2.236-2.575-2.834-2.327c-0.85,0.354,1.34,4.866,0.116,6.472
		c-1.068-0.872-1.232-1.476-2.149-0.686c-0.021,0.018,5.904,3.343,5.658,3.955c-5.581-3.932-3.33,2.892-2.874,2.202
		c0.402-0.609-0.432-1.7,1.02-0.907c0.684,0.374-0.52,1.571-0.234,1.787c0.664,0.502,1.697,0.377,2.238,0.873
		c2.958,2.706,4.939,4.644,4.118,8.664c-0.445-1.453-2.92-3.069-4.226-2.035c0.118-0.093-0.089,7.781-0.299,8.791
		c-1.513-1.567-9.505-13.262-7.161-15.287c-1.426,1.231-3.366-2.917-2.072-4.487c0.828-1.003,4.271-0.11,3.454-2.283
		c-0.526-1.398-2.861,0.911-3.363,1.271c-0.202-0.556-0.201-1.112,0.003-1.666c-2.135,0.873-4.65,3.707-5.673,5.644
		c-0.139,1.063-0.481,2.055-1.024,2.973c-0.721,0.428-1.49,0.535-2.307,0.32c-0.904,1.338-0.03,1.864-0.479,3.198
		c-1.938-2.828-6.761,6.047-7.268,7.721c-0.838,2.769-0.102,4.564,0.39,7.272c0.171,0.943-0.003,6.76,0.397,7.09
		c1.145,0.944,2.059-2.098,3.3,0.267c0.55,1.047-0.284,1.748-0.749,2.459c-0.764,1.167-3.549,2.692-4.732,3.658
		c-0.739,0.604-1.228,1.468-2.061,1.983c-0.952,0.589-1.998-0.064-2.732,0.583c-1.427,1.258-0.484,3.942-0.749,4.257
		c-0.881,1.048-2.267,0.718-2.912,1.547c0.557-0.717-0.728,4.175-0.641,3.894c-0.371,1.208-1.05,2.471-1.6,3.61
		c-3.075,6.365-7.858,9.936-14.147,12.948c-3.188,1.527-6.528,2.8-9.969,3.625c-2.465,0.592-5.891,0.33-8.202,1.314
		c-3.935,1.677-1.153,2.23-5.563,0.573c-2.344-0.88-5.035-1.136-7.139,0.25c-1.99,1.312-2.458,4.349-4.467,5.478
		c-1.533,0.86-3.784,0.543-5.462,0.751c-3.396,0.422-6.245,0.845-9.081,2.739c-0.517,0.345-3.044,2.178-3.407,2.103
		c0.9,0.754-0.408,1.881-1.118,2.407c-0.244,0.181-0.792-1.267-0.849-1.249c-0.773,0.242-1.218,1.05-1.967,1.23
		c-1.783,0.428-4.083,2.124-6.043,0.917c-0.899-0.553-1.567-3.422-2.168-3.378c-1.459,3.237-0.873,0.872-2.97,1.961
		c-1.083,0.562-1.267,2.096-2.742,1.328c-1.481-0.771,0.915-4.737,0.898-5.53c0.402,0.629,0.839,0.75,1.313,0.348
		c-0.053-0.69-1.944-2.011-2.632-2.105c-0.308-0.042-1.485,5.532-2.797,6.062c0.672-3.367,0.161-3.172-1.986-1.69
		c-3.875,2.675,0.219-0.147,1.436,2.27c-1.562-0.138-1.785,1.582-2.838,2.249c-1.575,0.997-3.204,0.509-4.607,1.297
		c-1.276,0.717-0.929,1.722-1.87,2.49c-1.146,0.936-2.644,1.201-3.884,2.143c-2.056,1.561-4.332,3.948-6.183,5.637
		c-3.129,2.855-5.121,4.553-9.282,6.08c-4.708,1.727-8.947,4.322-11.263,8.115c-0.843,1.38-0.51,5.759-1.863,7.244
		c-2.451,2.69-3.151-0.005-3.844-1.323c-1.486-2.828-1.516-3.407-0.599-6.634c0.423-1.488,1.624-3.499,0.368-4.204
		c-1.488-0.835-3.404,1.991-4.006,2.908c-1.822,2.775-4.402,9.361-5.095,12.664c-0.535,2.55,0.802,3.112,1.724,5.355
		c0.878,2.138,0.203,3.458,0.038,5.527c-0.209,2.615,0.634,5.63-0.43,8.285c-1.7,4.243-4.658,6.68-5.489,11.54
		c-0.5,2.927-1.635,6.446-0.567,9.344c0.538,1.461,1.76,2.432,2.518,3.774c1.172,2.075,1.292,4.099,1.927,6.303
		c1.035,3.593,3.514,6.892,5.099,10.542c1.564,3.603,4.475,6.204,4.905,9.789c0.239,1.986,1.32,8.978-1.609,9.479
		c-3.431,0.588-2.804-8.219-3.938-10.029c-0.814-1.301-0.918,3.371-0.623,2.5c-0.312,0.917-1.038,2.938-2.091,2.445
		c-1.494-0.7,0.414-4.659,0.181-5.933c-0.596-3.25-3.82-5.042-4.319-8.568c-4.818,6.04,1.08,12.051,4.829,16.797
		c1.309,1.657,2.472,4.844-0.268,5.92c-2.911,1.144-1.982-2.603-2.704-2.462c-0.195,0.486-0.498,0.658-0.908,0.514
		c0.022,0.018-1.424-4.99-1.631-5.424c-0.498-1.042-1.36-4.083-2.478-4.564c-0.488,1.365,0.826,2.611-0.059,3.933
		c-0.268-1.242-0.536-2.484-0.804-3.726c-1.28,0.65-0.477,2.563-1.274,3.551c0.514-1.971-2.93-13.262-4.151-14.193
		c-1.746-1.332-1.876,1.843-1.929,2.667c-0.217,3.37,2.986,7.463,4.465,10.354c1.007,1.967,1.633,4.52,2.833,6.343
		c1.345,2.044,3.504,3.572,5.05,5.485c3.799,4.7,7.063,10.639,9.291,16.251c1.929,4.859-0.44,9.562,2.643,14.339
		c1.983,3.073,5.859,5.665,6.73,9.442c0.54,2.337-0.547,2.714,0.822,5.033c1.439,2.438,3.365,3.737,4.493,6.456
		c2.438,5.878,1.102,11.646,1.86,17.73c0.417,3.351,0.342,5.333,1.392,8.416c0.818,2.401,1.384,4.627,2.541,6.948
		c2.888,5.797,5.99,11.571,8.754,17.427c1.769,3.748,1.01,3.896,0.072,7.493c-0.757,2.903-0.056,3.318,0.642,6.147
		c0.79,3.201,0.014,2.456-1.245,5.112c-1.362,2.874-0.109,5.271,0.312,8.188c0.617,4.269-0.437,10.929-4.867,13.181
		c-3.736,1.898-3.016-1.414-6.158-1.262c-2.273,0.11-1.619,4.812-1.607,6.88c0.014,2.457-0.258,6.515,1.424,8.614
		c2.586,3.23,0.757,0.12,3.296,0.493c5.164,0.756,9.546,4.52,12.807,8.51c2.634,3.224,1.498,1.929,5.402,2.895
		c2.932,0.726,4.644,3.581,7.936,4.023c2.944,0.396,6.526,0.117,9.526,0.162c0.929,0.015,1.531-0.757,2.736-0.714
		c1.169,0.042,2.375,0.931,3.521,1.074c0.629,0.079,0.93,0.979,1.68,0.931c1.171-0.076,1.045-1.7,2.066-1.656
		c2.031,0.087,3.133,2.216,5.26,1.348c1.158-0.473,1.119-1.708,1.996-2.496c0.247-0.221,1.463,0.539,1.814,0.339
		c0.564-0.321-0.376-1.585,0.449-1.828c1.583-0.467,3.216,0.588,4.827,0.071c-2.117-2.764-0.874-3.13,1.664-4.391
		c0.9-0.446,2.035-0.266,2.822-1.015c0.66-0.628,0.593-2.145,0.947-2.478c0.663-0.625,2.93-1.769,3.741-1.794
		c1.664-0.052,5.799,3.09,5.847-0.063c0.557,0.246,1.084,0.543,1.583,0.893c0.477-0.436,0.762-0.979,0.857-1.633
		c1.355-0.362,2.603-0.592,3.988-1.098c-6.107-1.043,1.597-6.764,4.188-7.794c2.17-0.862,5.44-0.815,7.783-0.756
		c2.822,0.072,4.064-0.404,6.56-1.025c4.99-1.243,12.621-1.677,17.558-0.626c1.158,0.247,2.499,0.978,3.72,0.778
		c0.376-0.062,2.152-1.184,2.385-1.165c3.013,0.244,2.079,2.339,2.853,4.785c0.586-0.889,4.825-3.109,5.687-3.312
		c0.663-0.156,1.998,0.957,2.771,1.021c0.684,0.056,1.665-1.233,2.471-1.367c0.829,2.513-1.035,0.317-1.209,1.623
		c-0.07,0.529,3.075,1.231,1.254-1.631c1.25-0.22,4.656-0.811,5.82-0.472c1.256,0.365,3.484,1.772,3.779,3.08
		c-0.21,0.763-1.506,0.548-1.227,1.584c0.535,1.983,3.82-4.05,3.805-4.042c1.358-0.716,3.213,0.26,4.882-0.382
		c1.335-0.514,2.049-1.26,2.915-2.223c0.643-0.715,2.164-3.018,2.896-4.012c1.31-1.781,0.654-1.049,1.55-3.341
		c1.365-3.491,1.967-6.966,5.418-8.993c3.18-1.869,7.017-1.028,10.28-2.806c3.871-2.108,7.583-3.979,11.526-5.93
		c3.787-1.874,6.527-5.387,10.883-6.231c4.827-0.936,10.624,1.101,15.679,0.773c9.251-0.601,20.169-3.61,28.549-7.635
		c4.569-2.194,8.338-4.357,13.427-5.344c4.903-0.951,9.901-1.314,14.873-1.707c5.156-0.407,11.095,1.457,16,0.113
		c1.639-0.448,3.218-2.236,4.831-2.355c1.439-0.107,4.063,1.578,5.325,2.143c3.833,1.715,7.187,3.816,10.468,6.428
		c1.689,1.344,2.528,2.55,4.687,3.004c0.018,0.004,4.253-0.367,4.086-0.204c0.074-0.521-0.135-0.921-0.627-1.203
		c-0.132-2.339,8.254,1.548,8.635,1.731c2.216,1.065,3.104,1.487,3.204,3.859c1.614-1.885,4.32-0.438,6.412-0.898
		c0.532-0.117,3.438-1.932,3.231-1.958c2.793,0.36-2.066,3.787-2.462,4.346c2.519-0.212,2.341-1.047,4.339-2.363
		c0.441,1.761,3.222,1.244,3.233,3.365c-0.402-0.261-3.139-1.154-2.069-0.066c0.758,0.771,1.184,3.253,1.719,3.515
		c1.949,0.955,3.118-2.855,5.884-0.451c4.753,4.133-1.637,3.146-2.398,3.959c-0.625,0.667,0.562,1.134,0.405,1.436
		c0.382-0.736-0.64,2.951-0.797,2.695c0.184,0.698,1.845,0.717,2.125,1.217c0.083,0.148-0.784,0.947-0.611,1.173
		c0.501,0.654,1.251,0.675,1.767,1.34c0.484,0.624,0.415,1.679,1.215,2.023c1.277,0.552,1.582-0.664,2.736-0.453
		c2.812,0.515,11.688,6.481,5.509,8.827c4.711,2.591,7.792,5.407,9.448,10.229c0.985,2.867,2.643,6.86,2.319,10.566
		c-0.784-3.344-4.282-4.104-5.023-0.423c1.735,0.719,1.649-1.175,3.222,0.556c1.299,1.429-0.271,0.955-0.199,1.92
		c0.017,0.229,3.163,0.941,3.637,1.271c1.701,1.185,2.056,3.676,4.361,4.122c0.803-1.736,0.167-2.287,2.271-1.608
		c0.355,0.114,2.592,2.969,2.68,3.484c0.409-0.97,0.723-1.75,0.926-2.493c0.039,0.172,0.117,0.391,0.25,0.675
		c0.296,0.074,0.592,0.147,0.887,0.221c0.039-0.001,0.032-0.001,0,0c1.231-0.023,0.637,1.562,1.73,1.925
		c2.354,0.778-1.911-3.527-2.756-3.282c0.23-1.083,0.216-2.155-0.094-3.704c-0.134-0.669-1.102-0.639-1.237-1.669
		c-0.105-0.804,1.429-1.808,0.129-2.467c1.211-0.492,2.441-0.346,3.083-0.976c0.416-0.407-0.243-1.623,0.199-2.154
		c0.405-0.486,1.291-0.844,1.653-1.364c3.258-4.682,6.035-7.831,11.374-10.418c5.648-2.738,7.667-2.89,10.092-9.136
		c0.841-2.167,1.264-3.469,2.747-5.299c0.749-0.924,1.231-1.801,2.19-2.406c0.662-0.417,1.752,0.666,2.224,0.289
		c0.991-0.793,0.606-5.584,0.85-6.618c1.768,2.368,0.694,6.486,3.739,7.921c-0.766,1.562-3.387,1.389-4.041,2.965
		c-0.817,1.969,1.903,3.525,1.782,5.658c-0.146,2.576-2.894,3.981-4.303,5.789c-1.363,1.751-1.948,3.804-2.753,5.547
		c-0.577,1.251-1.026,2.42-1.288,3.669c-0.325,1.559,0.378,2.13-0.689,3.988c-0.351,0.61-2.908,1.906-1.541,2.855
		c0.5,0.347,2.181-1.147,2.09-1.767c0.672,1.537,1.138,7.33-0.142,8.68c-1.555,1.641,0.143,0.24-2.748,0.54
		c-1.217,0.126-3.88-0.33-5.009,0.271c-2.099,1.118-0.774,1.462-1.753,3.153c-4.583,7.92,3.507,3.131,7.692,1.698
		c3.643-1.247,5.338,1.583,7.743-1.684c2.176-2.954,1.352-8.074,2.501-11.271c0.468-1.304,1.703-2.21,2.138-3.368
		c0.338-0.898-0.257-2.592,0.301-3.206c2.199-2.425,3.426,3.962,4.248,5.378c1.701,2.929,3.41,4.191,3.752,7.754
		c0.398,4.157,0.348,8.487-2.79,11.547c-2.067,2.016-6.778,4.777-1.251,5.321c1.138,0.112,4.092-0.188,5.153-0.486
		c1.318-0.371,2.135-2.248,3.455-2.411c6.33-0.783,14.479,9.822,17.114,14.484c1.49,2.636,4.438,7.633,3.821,10.898
		c-0.769,4.067-4.217,2.836-1.253,7.328c0.133,0.201-1.422,0.595-1.083,1.403c0.52,1.244,1.591,2.542,2.456,3.525
		c2.17,2.468,4.771,4.303,6.77,6.962c1.947,2.589,3.242,5.521,6.39,6.916c3.077,1.364,6.183,0.348,9.338,1.629
		c2.953,1.199,3.053,2.525,4.947,4.357c1.109,1.073,2.853,2.873,4.446,2.249c2.331-0.914-0.075-1.585,1.685-2.972
		c2.971-2.34,6.464,2.26,9.191,2.285c3.067,0.028,2.921-1.332,6.19,0.364c2.784,1.444,4.808,3.147,7.749,4.267
		c2.181,0.829,3.995,2.4,5.996,3.098c0.227,0.078,2.685,0.513,3.183,0.6c0.343,0.905,0.898,1.289,1.665,1.15
		c0.575,0.089,1.044-0.135,1.406-0.67c1.985-0.447,4.739-3.554,6.348-4.951c2.213-1.922,4.743-4.21,7.553-5.387
		c1.805-0.755,6.083-0.139,6.64-2.349c0.952-3.784-4.256-1.532-6.104-2.285c4.482-0.636,7.159-4.487,10.814-6.69
		c1.703,3.639,3.993,3.759,1.944,7.538c-0.643,1.184-2.027,3.679-3.53,4.089c-1.336,0.365-3.227-1.497-4.089-0.66
		c1.834,1.723,3.298,3.975,5.939,3.895c0.791-0.506,1.516-1.096,2.174-1.771c1.026-0.201,2.054-0.204,3.081-0.008
		c-1.346-0.006-2.551,0.656-3.061,1.942c0.94,0.54,3.408,1.035,4.407,1.336c0.746-0.667,1.472-0.702,2.177-0.106
		c0.436,0.58,0.879,1.154,1.329,1.723c1.73,0.907,2.957,0.059,4.484,0.905c1.278,0.709,1.303,3.346,2.288,3.904
		c2.362,1.339,2.337-2.868,5.028-0.156c1.521,1.531,1.549,4.33,2.573,6.08c3.189-1.841,2.209-0.723,2.663-4.167
		c-0.022,0.173,0.908-2.943,0.645-2.624c0.865-1.049,2.355-1.154,3.655-1.802c8.062-4.014,12.981-12.337,21.1-16.432
		c7.578-3.822,17.205-3.201,25.448-3.343c4.308-0.075,5.882-0.801,9.182-3.077c4.194-2.894,4.82-1.665,4.541-7.451
		c0.566,0.341,1.136,0.353,1.71,0.033c-4.158-5.419-1.198-10.768,0.367-16.516c1.275-4.683,1.076-9.556,3.093-14.047
		c2.112-4.705,4.997-10.202,8.485-13.976c1.856-2.008,2.184,1.923,1.862-3.211c-0.203-3.234-0.112-1.849,1.234-5.05
		c0.889-2.111,0.669-4.558,1.355-6.741c0.963-3.063,2.813-3.903,4.68-6.258c1.823-2.301,2.015-4.154,2.312-6.919
		c0.353-3.283,0.755-3.417,2.646-6.081c2.735-3.852,3.741-9.661,7.987-12.293c1.849-1.146,4.238-0.813,5.866-2.259
		c0.596-0.528-0.247-1.912,0.069-2.362c0.558-0.795,1.487,0.823,2-0.005c0.431-0.696-1.167-0.713-0.133-1.585
		c1.05-0.883,3.406-1.312,4.104-2.391c1.88-2.905-1.383-6.21,1.019-9.521c2.456-3.39,4.8-6.546,6.053-10.754
		c0.559-1.875,0.688-3.876,1.224-5.735c0.393-1.363,2.121-4.227,1.906-5.571c-0.164-1.032-1.394-1.355-1.72-2.506
		c-0.421-1.482,0.308-4.363,0.736-5.771c1.622-5.312,3.718-10.313,5.059-15.791c1.331-5.437,0.758-10.448,3.548-15.573
		c1.109-2.038,1.748-2.434,1.885-4.655C975.177,637.164,973.652,634.201,974.136,631.013z"/>
	<path fill="#888888" d="M651.472,767.157C651.411,767.177,651.338,767.25,651.472,767.157L651.472,767.157z"/>
	<path fill="#888888" d="M877.391,914.174c-0.331-0.324-0.296-3.85-0.274-4.126c0.102-1.343,0.514-2.841,0.54-4.188
		c0.03-1.604-0.862-2.782-0.782-4.333c0.052-1.019,0.854-1.978,0.968-3.074c-0.314-0.845-0.543-1.714-0.686-2.607
		c-0.158-1.314,0.216-2.464,1.123-3.449c-0.012-0.074-1.209-1.707-1.285-1.811c-1.543-2.112-2.916-1.238-2.713-3.499
		c0.022-0.251-2.812-0.143-2.936-0.064c-1.714,1.093-3.771,5.638-6.485,0.524c-0.555,1.286-1.842,4.405-3.414,4.787
		c-0.993,0.24-1.298-1.199-1.976-1.115c-0.945,0.117-1.891,1-2.658,1.053c-4.021,0.278-7.28,1.354-11.346,2.562
		c-5.811,1.728-10.826-0.942-15.999-3.387c-1.618-0.766-3.457-1.078-5.023-1.845c-1.103-0.539-2.853-3.013-3.442-3.093
		c-0.065,4.645-5.415-2.023-5.855-3.386c-2.741,7.762-3.789-1.033-2.203-1.555c0.643-0.211,3.429,1.896,3.143-0.855
		c-0.175-1.678-1.711-0.891-2.346-0.845c-3.076,0.22-3.372,3.182-3.448,5.929c-0.086,3.125-0.874,5.031-0.656,7.758
		c0.37,4.622,3.107,9.908,5.63,13.733c1.77,2.683,5.327,5.028,5.675,8.005c-0.259-0.514-1.49,2.836-1.481,2.612
		c-0.25,1.412,1.267,7.128,1.82,8.446c1.01,0.142,1.585,0.706,1.725,1.694c0.25,0.822,0.558,1.623,0.923,2.401
		c0.64,1.258,0.896,2.036,1.934,3.075c1.499,1.499,2.976,2.635,4.414,4.315c1.214,1.419,1.107,3.306,3.525,2.403
		c-0.438,1.183,0.931,4.909,2.276,5.362c0.638,0.215,2.585-1.182,3.37-1.235c0.271-0.018,3.052,0.65,3.741,0.79
		c1.555,0.314,2.574,0.901,3.975,1.334c0.676,0.208,3.183,0.869,3.414,0.811c2.387-0.601,2.483-4.213,3.968-5.583
		c0.644,1.2,2.682,3.547,4.465,2.992c1.383-0.431,0.966-3.69,1.104-4.004c-0.057,0.128,0.017-1.382,0.025-1.449
		c0.033-0.267,1.268-0.482,1.354-1.465c0.088-1.009-1.867-2.845-1.881-4.348c-0.012-1.396,2.347-0.232,1.63,0.399
		c-0.534,0.472-1.694,2.466,0.611,2.2c2.504-0.289,0.33-3.365,1.426-4.568c1.259-1.382,2.231,1.569,4.606,0.729
		c2.086-0.738,2.617-4.017,3.325-5.901c-0.035,0.093-0.21-1.872-0.225-1.778c0.104-0.691,0.793-2.239,1.024-3.192
		c0.271-1.114,1.609-8.722,4.044-5.085c0.276,0.413-0.529,6.011,1.821,4.546C878.798,920.224,878.03,914.799,877.391,914.174
		C877.283,914.068,877.31,914.095,877.391,914.174z"/>
	<path fill="#888888" d="M869.329,931.378C869.329,931.378,869.329,931.378,869.329,931.378c-0.035-0.018-0.045,0.012-0.044,0.035
		c-0.021,0.02-0.03,0.026,0,0.001C869.288,931.443,869.309,931.463,869.329,931.378z"/>
	<path fill="#888888" d="M541.06,291.913c3.168-0.606,6.075-0.051,9.22,0.035c1.104,0.03,1.95-0.378,3.042-0.098
		c1.301,0.333,2.142,1.817,3.277,2.103c2.878,0.723,7.999-4.471,10.018-6.856c2.316-2.738,1.584-7.519-2.943-7.97
		c-3.205-0.319-9.393,6.326-11.97,1.528c0.205,0.955-0.119,1.62-0.972,1.994c0.492-1.966,0.218-1.296-0.542-2.419
		c0.14,0.207-2.628-1.846-2.576-1.851c-2.308,0.233-0.487,2.199-0.627,3.471c-3.814-3.847-3.822,6.032-3.993,6.353
		c-0.654,1.231-1.524-0.045-2.185,1.074C540.541,289.731,539.558,292.201,541.06,291.913z"/>
	<path fill="#888888" d="M684.663,784.454C684.823,784.31,685.92,783.323,684.663,784.454c-0.251,0.15-0.502,0.3-0.752,0.449
		c-0.462-2.317-2.617-0.416-3.846-1.646c1.507-0.351,1.458-1.378,0.653-2.397c-1.252-1.587-0.936,0.17-2.156,0.03
		c-3.082-0.352-5.352,0.478-8.354,1.285c-2.399,0.646-10.546,0.484-9.988,4.701c0.237,1.796,3.082,3.342,4.476,3.728
		c3.221,0.892,7.046-1.133,10.237-0.816c1.834,0.182,1.453,1.479,3.41,0.973c1.83-0.473,1.313-1.434,2.111-2.079
		c1.056-0.853,0.759-1.745,3.146-1.991c1.593-0.164,3.287,1.435,4.76,0.872C691.907,786.207,687.355,782.032,684.663,784.454z"/>
	<path fill="#888888" d="M877.082,874.069c0.028,0.315,0.072,0.788,0.084,0.914c-0.009-0.089-0.033-0.358-0.085-0.918
		c-0.134-1.455-0.83-2.975,1.348-3.09c-0.191-1.225-2.737-0.419-3.73-0.867c-2.176-0.982-2.987-3.941-5.188-5.093
		c-0.438,1.095-2.846,3.123-2.89,4.208c-0.133,3.207,3.036-0.656,1.955,3.23c0.558,0.628,1.205-0.193,1.589,0.743
		c0.082,0.2,2.401,4.316,2.393,4.258c0,0-0.934,3.186-1.426,1.885c0.15,0.44,0.453,1.195,0.548,1.575
		c0.97,3.921,2.491,2.987,4.446,1.759c0.298-0.188,0.281-1.287,0.711-1.597c0.653-0.472-0.037,1.555-0.104,1.487
		c0.797,0.802,3.677-1.527,3.974-2.163C878.374,879.098,877.317,876.623,877.082,874.069z"/>
	<path fill="#888888" d="M656.172,342.029c2.245-1.77,3.599,0.243,5.71,0.726c1.159,0.265,1.305-0.297,2.436-0.166
		c1.251,0.146,3.131,1.832,4.183-0.398c0.703-1.49-1.048-4.17-1.889-1.886v0c0.274-0.748-2.452-0.341-3.162,0.06
		c0.395-0.831,0.879-1.605,1.453-2.324c0.55-0.769,0.556-1.553,0.016-2.353c0.523-1.036,1.468-0.58,1.781-1.832
		c0.282-1.125,1.82-1.661,0.146-2.545c-1.581-0.834-1.124,1.518-2.506,1.633c0.14-0.257-0.09-3.975-0.531-4.271
		c-0.636-0.424-2.849,0.731-3.538,1.316c-1.724,1.465-1.932,2.706-2.372,4.953c-0.223,1.141,0.319,2.394,0.022,3.487
		C657.576,339.692,655.964,341.171,656.172,342.029z"/>
	<path fill="#888888" d="M800.144,866.58c0.126-0.54,0.177-0.756,0.185-0.789c-0.013,0.052-0.12,0.511-0.185,0.787
		c0.36-1.54-1.162-3.287-2.821-3.187c-1.879,0.114-0.067,2.603-2.846,1.582c1.484,1.636-0.725,8.718,1.069,9.745
		c0.907,0.52,3.348-0.861,3.954-1.591C801.29,870.976,799.57,869.022,800.144,866.58z"/>
	<path fill="#888888" d="M708.27,393.588c0.252-0.139,0.503-0.278,0.755-0.417c-0.111,0.104-0.306,0.285-0.358,0.333
		c0.035-0.032,0.139-0.129,0.358-0.333l0,0c0.842-0.782,3.755-0.205,4.698-0.842c0.924-0.624,1.745-2.354,2.146-4.157
		c0.137,2.893,7.49-1.847,0.033-1.982c-2.245-0.041-5.049,0.911-6.481,2.623C708.985,389.333,707.136,393.494,708.27,393.588z"/>
	<path fill="#888888" d="M868.931,933.272c-0.032-0.127-0.052-0.201,0,0.002c0.402,1.575-0.43,1.606-1.636,1.783
		c-1.239,0.182-0.379-1.637-0.96-1.975c-1.168-0.679-2.059,3.966,0.452,5.098c2.015,0.908,2.745-0.273,5.051,0.806
		c0.004-0.009,0.072-6.034,0.108-5.954C871.165,931.294,868.242,930.565,868.931,933.272z"/>
	<path fill="#888888" d="M659.788,284.75c2.12-2.707,5.381-6.768,4.422-10.498c-1.744,3.276-2.902,6.902-5.486,9.689
		c-2.701,2.915-5.388,4.569-7.862,7.875C653.309,288.815,657.386,287.817,659.788,284.75z"/>
	<path fill="#888888" d="M888.026,466.096c1.091,0.782,0.348,3.142,2.43,1.579c-0.728-1.028,2.165-1.865,3.121-2.596
		c-0.731-0.708-2.222,0.747-2.698,0.053c-0.688-1.002,0.674-1.262,0.468-1.675c-0.512-1.027-1.729,0.371-2.216-0.178
		c0.119,0.134-0.057-4.13-1.706-2.35C886.179,462.273,889.487,464.393,888.026,466.096z"/>
	<path fill="#888888" d="M763.434,270.413c-0.012,0.013,0.031,0.04,0.173,0.087c0.248,0.009,0.332,0,0.33-0.016
		c2.348-0.271,4.487-4.217,1.484-5.083c-0.729-0.21-0.698-0.468-0.598-0.607c-0.107,0.074-0.298,0.19-0.624,0.364
		C763.198,265.689,761.858,269.583,763.434,270.413z"/>
	<path fill="#888888" d="M764.823,264.793C765.044,264.643,764.909,264.676,764.823,264.793L764.823,264.793z"/>
	<path fill="#888888" d="M270.517,478.8L270.517,478.8c1.433-0.446,3.406-3.815,1.552-4.823c-2.941-1.598-2.849,5.57-2.386,6.61
		C270.252,479.994,269.514,479.111,270.517,478.8z"/>
	<path fill="#888888" d="M653.833,329.073c-0.254,2.073-3.62,4.479,0.513,4.688c-0.004,0-0.009,0-0.012,0c0.005,0,0.007,0,0.013,0
		l0,0l0,0c0.062,0.003,0.115,0.006,0.167,0.008c-0.062-0.003-0.12-0.006-0.166-0.008
		C658.017,333.947,654.753,329.729,653.833,329.073z"/>
	<path fill="#888888" d="M714.636,397.715c-0.056,0.048-0.095,0.087-0.123,0.122c-0.896,0.929-0.507,2.566-2.484,1.815
		c2.191,0.822-0.062,2.027,3.225,1.654c1.588-0.18,1.706-1.443,2.109-1.593c-1.679,0.625-1.417-1.387-2.275-1.887
		C715.127,397.762,715.032,397.708,714.636,397.715z"/>
	<path fill="#888888" d="M229.961,559.294C229.979,559.198,229.976,559.213,229.961,559.294c0.043-0.475-0.042-0.924-0.256-1.347
		c-1.54,0.488-2.055,9.845-1.536,10.972C229.174,565.791,229.39,562.509,229.961,559.294z"/>
	<path fill="#888888" d="M874.243,925.222c-1.65,0.008-1.129-0.597-2.04,0.735c-0.978,1.428,1.282,0.968,1.223,1.79
		c-0.06,0.806-0.826,1.149-0.85,2.297c1.826-1.486,0.911-0.073,1.534-2.36c0.172-0.629,0.946-0.528,0.863-1.142
		C874.913,926.102,874.059,925.713,874.243,925.222z"/>
	<path fill="#888888" d="M844.898,433.36c-0.001,0-0.003-0.002-0.004-0.003C844.896,433.358,844.896,433.359,844.898,433.36
		c0.605,0.477-0.834,1.459-0.363,2.204c1.008-0.35,2.028-0.661,3.061-0.931c-1.577-1.298-3.608-2.319-3.8-4.62
		C843.322,431.775,843.465,432.232,844.898,433.36z"/>
	<path fill="#888888" d="M653.145,327.786c0.546-1.162,0.839-2.415,2.512-1.926c-0.212-0.518-2.912-2.889-3.486-2.443
		c-0.678,0.526,1.541,1.175-0.235,1.379c0.066-0.007,0.136-0.015,0.188-0.021c-0.045,0.005-0.102,0.012-0.188,0.021
		C650.729,324.935,652.828,327.768,653.145,327.786z"/>
	<path fill="#888888" d="M274.833,468.931c-0.611-2.928-1.731-0.396-2.162,0.353C272.857,472.501,275.153,470.462,274.833,468.931z"
		/>
	<path fill="#888888" d="M892.468,470.387c0.083-1.039-1.206-2.186-2.007-2.707c-1.292,1.16,0.499,2.106,0.092,3.354
		C891.42,470.639,892.269,472.894,892.468,470.387z"/>
	<path fill="#888888" d="M243.961,580.905c0.286-3.106-2.372-0.596-1.833-0.394C242.148,580.519,244.02,583.265,243.961,580.905z"/>
	<path fill="#888888" d="M850.692,443.103C850.608,443.37,850.411,443.995,850.692,443.103c0.002-0.004,0.002-0.005,0.003-0.008
		c0.994-3.17-1.748-0.555-1.874-0.827C849.1,442.868,850.209,444.635,850.692,443.103z"/>
	<path fill="#888888" d="M849.174,443.282C849.173,443.283,849.173,443.283,849.174,443.282
		C849.173,443.283,849.173,443.283,849.174,443.282L849.174,443.282c-0.047,0.037-0.025,0.036,0.008,0.025
		c0.017,0.039,0.05,0.081,0.004-0.001C849.243,443.285,849.329,443.236,849.174,443.282z"/>
	<path fill="#888888" d="M623.104,741.401c0.01-0.003,0.021-0.006,0.029-0.008C623.124,741.396,623.117,741.397,623.104,741.401
		c-0.046,0.013-0.081,0.021-0.12,0.032C623.03,741.421,623.071,741.41,623.104,741.401c-1.334,0.357-1.589,1.893-1.813,3.02
		C621.654,744.176,624.622,740.995,623.104,741.401z"/>
	<path fill="#888888" d="M604.096,285.974c0.037-0.042,0.069-0.085,0.097-0.128c0.052-0.075,0.083-0.141,0.1-0.199
		c0.434-1.203-2.223-2.249-2.281,0.849C602.81,286.487,603.231,285.169,604.096,285.974z"/>
	<path fill="#888888" d="M815.942,347.942c0.865,0.273-1.213-2.675-2.18-2.589C814.917,346.63,813.86,347.284,815.942,347.942z"/>
	<path fill="#888888" d="M645.311,353.562c-0.819,0.587-0.976,1.335-0.468,2.243C645.392,355.414,647.169,352.66,645.311,353.562
		c0.049-0.023,0.09-0.043,0.111-0.054C645.403,353.517,645.369,353.533,645.311,353.562z"/>
	<path fill="#888888" d="M273.443,706.72c-0.219,0.343-2.946,0.795-0.702,1.347c0.308,0.029,0.335,0.024,0.27,0.013
		C275.292,708.161,273.715,706.297,273.443,706.72z"/>
	<path fill="#888888" d="M600.899,719.736c-0.247-1.176,0.143-1.958,0.503-3.123C599.212,717.606,599.183,717.807,600.899,719.736z"
		/>
	<path fill="#888888" d="M893.305,474.604c0.904-0.969-1.945-0.85-1.992-1.683C889.569,473.094,892.447,475.523,893.305,474.604z"/>
	<path fill="#888888" d="M837.359,417.333C837.319,417.343,837.331,417.34,837.359,417.333c-1.752,0.426,1.022,3.062,1.746,3.135
		C838.295,420.08,838.038,417.168,837.359,417.333z"/>
	<path fill="#888888" d="M910.104,499.383c-0.077,0.862,0.192,1.593,0.81,2.194C913.336,502.529,910,499.104,910.104,499.383z"/>
	<path fill="#888888" d="M655.927,758.416C655.973,758.432,655.985,758.437,655.927,758.416c-0.942-0.059-1.519,0.379-1.731,1.312
		C653.779,760.072,658.208,759.216,655.927,758.416z"/>
	<path fill="#888888" d="M429.92,378.811c1.072,0.747-0.058,2.157,1.078,3.109C431.52,380.47,431.474,379.421,429.92,378.811z"/>
	<path fill="#888888" d="M560.599,296.817c-0.059-0.112-0.085-0.163-0.094-0.181C560.518,296.663,560.557,296.737,560.599,296.817
		c-0.486-0.93-1.822-1.062-2.562-0.382C558.181,297.391,561.055,297.691,560.599,296.817
		C560.702,297.015,560.82,297.241,560.599,296.817z"/>
	<path fill="#888888" d="M559.374,297.527c0.001,0.003,0.003,0.004,0.004,0.007c-0.001-0.001-0.001-0.002-0.002-0.003
		c0.002,0.006,0.01,0.019,0.018,0.031c0.003,0.005,0.007,0.012,0.01,0.016c0.022,0.032,0.042,0.057,0.007,0.005
		C559.458,297.616,559.467,297.448,559.374,297.527z"/>
	<path fill="#888888" d="M859.74,860.963c-0.093-0.771-1.468-0.842-1.52-0.914c-0.126-0.179-0.589,0.654-0.317,0.975
		c0.343,0.405,0.932,0.137,1.283,0.578c-0.097-0.122-0.267-0.335,0,0C859.422,861.897,859.756,861.095,859.74,860.963z"/>
	<path fill="#888888" d="M896.135,476.244c-0.731-0.299-1.4-0.878-2.487-0.461C894.495,476.107,894.873,478.63,896.135,476.244z"/>
	<path fill="#888888" d="M898.678,479.623c1.12-0.422-1.893-1.106-2.437-0.911C896.922,479.398,897.733,479.702,898.678,479.623
		C898.691,479.618,898.688,479.619,898.678,479.623z"/>
	<path fill="#888888" d="M384.833,749.005c0-0.021-0.002-0.103-0.004-0.198C384.831,748.866,384.832,748.929,384.833,749.005
		C384.834,749.016,384.834,749.014,384.833,749.005c0.015,0.664,2.213,0.041,1.963-1.265
		C386.328,748.721,384.802,747.462,384.833,749.005z"/>
	<path fill="#888888" d="M926.287,526.382c0.027-0.004,0.048-0.007,0.064-0.01C926.334,526.375,926.312,526.378,926.287,526.382
		c2.612-0.395-2.108-1.687-1.74-1.419C924.894,525.729,925.474,526.203,926.287,526.382z"/>
	<path fill="#888888" d="M433.337,377.5c1.348,1.07-0.196-1.974-0.123-1.635C433.375,376.606,431.602,376.123,433.337,377.5z"/>
	<path fill="#888888" d="M914.864,494.333C911.644,492.592,912.648,495.637,914.864,494.333L914.864,494.333z"/>
	<path fill="#888888" d="M471.979,336.058C471.976,336.062,471.975,336.063,471.979,336.058
		C472.57,335.434,472.023,336.012,471.979,336.058c0.487-0.878,0.506-1.785,0.057-2.721
		C471.941,333.542,471.05,337.037,471.979,336.058z"/>
	<path fill="#888888" d="M250.25,495.653c0.927-0.788,1.628-1.384,2.33-1.98C251.378,493.748,250.731,494.413,250.25,495.653z"/>
	<path fill="#888888" d="M773.104,267.99c1.562-0.06-1.228-1.409-1.223-1.409C771.926,267.373,772.333,267.843,773.104,267.99z"/>
	<path fill="#888888" d="M593.295,278.722c0.011-0.002,0.081-0.006,0.256-0.012c0.571-0.435,0.603-0.884,0.094-1.348
		c-0.12-0.009-1.405,0.268-1.376,0.54C592.425,278.443,592.769,278.714,593.295,278.722z"/>
	<path fill="#888888" d="M913.588,496.234c-0.229,1.1,1.722,0.153,1.722-1.109C914.533,495.191,913.959,495.561,913.588,496.234z"/>
	<path fill="#888888" d="M442.816,361.938C442.326,359.466,439.315,360.058,442.816,361.938L442.816,361.938z"/>
	<path fill="#888888" d="M870.502,877.417c-1.002-1.31-2.926,1.124-1.542,1.119C869.928,878.757,869.703,877.501,870.502,877.417z"
		/>
	<path fill="#888888" d="M868.96,878.536C868.612,878.538,869.901,878.751,868.96,878.536L868.96,878.536z"/>
</g>
</svg>
